<svg width="1240" height="611" viewBox="0 0 1440 911" fill="none" xmlns="http://www.w3.org/2000/svg">
<path d="M398 800.5C178 996.5 -23.3333 886.167 -96.5 806.5L-151 114H465L1347.5 148C1477.33 233.333 1659.1 398 1347.5 374C958 344 673 555.5 398 800.5Z" fill="#ED7E19"/>
<path d="M398 800.5C178 996.5 -23.3333 886.167 -96.5 806.5L-151 114H465L1347.5 148C1477.33 233.333 1659.1 398 1347.5 374C958 344 673 555.5 398 800.5Z" fill="#ED7E19"/>
<path d="M458.579 671.524C231.936 875.811 24.5221 760.813 -50.8541 677.778L-107 -44H527.603L1436.75 -8.56252C1570.51 80.3786 1757.76 252.007 1436.75 226.993C1035.49 195.724 741.884 416.166 458.579 671.524Z" fill="#F1B10B"/>
</svg>
